<?xml version="1.0" encoding="utf-8"?>
<COLLADA xmlns="http://www.collada.org/2005/11/COLLADASchema" version="1.4.1" xmlns:xsi="http://www.w3.org/2001/XMLSchema-instance">
  <asset>
    <contributor>
      <author>Blender User</author>
      <authoring_tool>Blender 4.2.0 commit date:2024-07-16, commit time:06:20, hash:a51f293548ad</authoring_tool>
    </contributor>
    <created>2024-08-30T00:51:48</created>
    <modified>2024-08-30T00:51:48</modified>
    <unit name="meter" meter="1"/>
    <up_axis>Z_UP</up_axis>
  </asset>
  <library_cameras>
    <camera id="Camera-camera" name="Camera">
      <optics>
        <technique_common>
          <perspective>
            <xfov sid="xfov">39.59775</xfov>
            <aspect_ratio>1.777778</aspect_ratio>
            <znear sid="znear">0.1</znear>
            <zfar sid="zfar">100</zfar>
          </perspective>
        </technique_common>
      </optics>
      <extra>
        <technique profile="blender">
          <shiftx sid="shiftx" type="float">0</shiftx>
          <shifty sid="shifty" type="float">0</shifty>
          <dof_distance sid="dof_distance" type="float">10</dof_distance>
        </technique>
      </extra>
    </camera>
  </library_cameras>
  <library_lights>
    <light id="Light-light" name="Light">
      <technique_common>
        <point>
          <color sid="color">1000 1000 1000</color>
          <constant_attenuation>1</constant_attenuation>
          <linear_attenuation>0</linear_attenuation>
          <quadratic_attenuation>0</quadratic_attenuation>
        </point>
      </technique_common>
      <extra>
        <technique profile="blender">
          <type sid="type" type="int">0</type>
          <flag sid="flag" type="int">0</flag>
          <mode sid="mode" type="int">2097153</mode>
          <red sid="red" type="float">1</red>
          <green sid="green" type="float">1</green>
          <blue sid="blue" type="float">1</blue>
          <shadow_r sid="blender_shadow_r" type="float">0</shadow_r>
          <shadow_g sid="blender_shadow_g" type="float">0</shadow_g>
          <shadow_b sid="blender_shadow_b" type="float">0</shadow_b>
          <energy sid="blender_energy" type="float">1000</energy>
          <spotsize sid="spotsize" type="float">75</spotsize>
          <spotblend sid="spotblend" type="float">0.15</spotblend>
          <clipsta sid="clipsta" type="float">0.04999995</clipsta>
          <clipend sid="clipend" type="float">30.002</clipend>
          <bias sid="bias" type="float">1</bias>
          <radius sid="radius" type="float">0.1</radius>
          <area_shape sid="area_shape" type="int">1</area_shape>
          <area_size sid="area_size" type="float">0.1</area_size>
          <area_sizey sid="area_sizey" type="float">0.1</area_sizey>
          <area_sizez sid="area_sizez" type="float">1</area_sizez>
        </technique>
      </extra>
    </light>
  </library_lights>
  <library_effects>
    <effect id="Material-effect">
      <profile_COMMON>
        <technique sid="common">
          <lambert>
            <emission>
              <color sid="emission">0 0 0 1</color>
            </emission>
            <diffuse>
              <color sid="diffuse">0.8 0.8 0.8 1</color>
            </diffuse>
            <index_of_refraction>
              <float sid="ior">1.45</float>
            </index_of_refraction>
          </lambert>
        </technique>
      </profile_COMMON>
    </effect>
  </library_effects>
  <library_images/>
  <library_materials>
    <material id="Material-material" name="Material">
      <instance_effect url="#Material-effect"/>
    </material>
  </library_materials>
  <library_geometries>
    <geometry id="Cube-mesh" name="Cube">
      <mesh>
        <source id="Cube-mesh-positions">
          <float_array id="Cube-mesh-positions-array" count="60">-0.3590777 1 0.3590777 -1 -1 1 -0.3590777 1 -0.3590777 -1 -1 -1 0.3590777 1 0.3590777 1 -1 1 0.3590777 1 -0.3590777 1 -1 -1 -0.5958073 0.2612847 0.5958073 -0.8094481 -0.405382 0.8094481 0.809448 -0.405382 -0.809448 0.5958073 0.2612847 -0.5958073 -0.5958073 0.2612847 -0.5958073 -0.8094481 -0.405382 -0.8094481 0.5958073 0.2612847 0.5958073 0.8094481 -0.405382 0.8094481 -0.2498033 0.06770753 1.648735 -0.3393763 -0.2118049 1.738308 0.2498034 0.06770753 1.648735 0.3393763 -0.2118049 1.738308</float_array>
          <technique_common>
            <accessor source="#Cube-mesh-positions-array" count="20" stride="3">
              <param name="X" type="float"/>
              <param name="Y" type="float"/>
              <param name="Z" type="float"/>
            </accessor>
          </technique_common>
        </source>
        <source id="Cube-mesh-normals">
          <float_array id="Cube-mesh-normals-array" count="108">0 1 0 0 0.3051741 -0.9522966 0.9522966 0.3051741 0 0 -1 0 -0.9522966 0.3051741 0 0 0.3051741 0.9522966 0 0.305174 0.9522966 0 0.9835169 0.1808161 -0.9522966 0.305174 0 -0.9522966 0.3051741 0 0.9522966 0.3051741 0 0.9522966 0.305174 0 0 0.305174 -0.9522966 0 0.305174 -0.9522965 0 0.3051741 0.9522966 0.8530338 0.3859322 0.3512687 -0.8530338 0.3859322 0.3512687 0 -0.9789668 0.2040194 0 1 0 0 0.3051741 -0.9522966 0.9522966 0.3051741 0 0 -1 0 -0.9522966 0.3051741 0 0 0.3051741 0.9522966 0 0.305174 0.9522966 0 0.9835169 0.1808161 -0.9522966 0.305174 0 -0.9522966 0.3051741 0 0.9522966 0.3051741 0 0.9522966 0.3051741 0 0 0.3051741 -0.9522966 0 0.3051741 -0.9522966 0 0.3051741 0.9522966 0.8530339 0.3859322 0.3512688 -0.8530338 0.3859322 0.3512687 0 -0.9789668 0.2040194</float_array>
          <technique_common>
            <accessor source="#Cube-mesh-normals-array" count="36" stride="3">
              <param name="X" type="float"/>
              <param name="Y" type="float"/>
              <param name="Z" type="float"/>
            </accessor>
          </technique_common>
        </source>
        <source id="Cube-mesh-map-0">
          <float_array id="Cube-mesh-map-0-array" count="216">0.875 0.5 0.625 0.75 0.625 0.5 0.625 0.75 0.5326606 1 0.5326606 0.7500001 0.5326606 0 0.625 0.25 0.5326606 0.25 0.375 0.5 0.125 0.75 0.125 0.5 0.625 0.5 0.5326606 0.7500001 0.5326606 0.5 0.625 0.25 0.5326606 0.5 0.5326606 0.25 0.4493272 0.25 0.375 0.5 0.375 0.25 0.5326606 0.25 0.5326606 0.5 0.5326606 0.25 0.4493272 0.5 0.375 0.75 0.375 0.5 0.5326606 0.5 0.4493272 0.75 0.4493272 0.5 0.4493272 0 0.375 0.25 0.375 0 0.4493272 0 0.5326606 0.25 0.4493272 0.25 0.4493272 0.75 0.375 1 0.375 0.75 0.5326606 0.7500001 0.4493272 1 0.4493272 0.75 0.5326606 0.25 0.4493272 0.5 0.4493272 0.25 0.4493272 0.25 0.5326606 0.25 0.4493272 0.25 0.4493272 0.5 0.5326606 0.5 0.5326606 0.5 0.4493272 0.25 0.4493272 0.5 0.4493272 0.5 0.875 0.5 0.875 0.75 0.625 0.75 0.625 0.75 0.625 1 0.5326606 1 0.5326606 0 0.625 0 0.625 0.25 0.375 0.5 0.375 0.75 0.125 0.75 0.625 0.5 0.625 0.75 0.5326606 0.7500001 0.625 0.25 0.625 0.5 0.5326606 0.5 0.4493272 0.25 0.4493272 0.5 0.375 0.5 0.5326606 0.25 0.5326606 0.5 0.5326606 0.5 0.4493272 0.5 0.4493272 0.75 0.375 0.75 0.5326606 0.5 0.5326606 0.7500001 0.4493272 0.75 0.4493272 0 0.4493272 0.25 0.375 0.25 0.4493272 0 0.5326606 0 0.5326606 0.25 0.4493272 0.75 0.4493272 1 0.375 1 0.5326606 0.7500001 0.5326606 1 0.4493272 1 0.5326606 0.25 0.5326606 0.5 0.4493272 0.5 0.4493272 0.25 0.5326606 0.25 0.5326606 0.25 0.4493272 0.5 0.4493272 0.5 0.5326606 0.5 0.4493272 0.25 0.4493272 0.25 0.4493272 0.5</float_array>
          <technique_common>
            <accessor source="#Cube-mesh-map-0-array" count="108" stride="2">
              <param name="S" type="float"/>
              <param name="T" type="float"/>
            </accessor>
          </technique_common>
        </source>
        <vertices id="Cube-mesh-vertices">
          <input semantic="POSITION" source="#Cube-mesh-positions"/>
        </vertices>
        <triangles material="Material-material" count="36">
          <input semantic="VERTEX" source="#Cube-mesh-vertices" offset="0"/>
          <input semantic="NORMAL" source="#Cube-mesh-normals" offset="1"/>
          <input semantic="TEXCOORD" source="#Cube-mesh-map-0" offset="2" set="0"/>
          <p>4 0 0 2 0 1 0 0 2 2 1 3 11 1 4 12 1 5 11 2 6 4 2 7 14 2 8 1 3 9 7 3 10 5 3 11 0 4 12 12 4 13 8 4 14 4 5 15 8 5 16 14 5 17 15 6 18 1 6 19 5 6 20 14 7 21 16 7 22 18 7 23 9 8 24 3 8 25 1 8 26 8 9 27 13 9 28 9 9 29 10 10 30 5 10 31 7 10 32 10 11 33 14 11 34 15 11 35 13 12 36 7 12 37 3 12 38 12 13 39 10 13 40 13 13 41 18 14 42 17 14 43 19 14 44 15 15 45 18 15 46 19 15 47 9 16 48 16 16 49 8 16 50 15 17 51 17 17 52 9 17 53 4 18 54 6 18 55 2 18 56 2 19 57 6 19 58 11 19 59 11 20 60 6 20 61 4 20 62 1 21 63 3 21 64 7 21 65 0 22 66 2 22 67 12 22 68 4 23 69 0 23 70 8 23 71 15 24 72 9 24 73 1 24 74 14 25 75 8 25 76 16 25 77 9 26 78 13 26 79 3 26 80 8 27 81 12 27 82 13 27 83 10 28 84 15 28 85 5 28 86 10 29 87 11 29 88 14 29 89 13 30 90 10 30 91 7 30 92 12 31 93 11 31 94 10 31 95 18 32 96 16 32 97 17 32 98 15 33 99 14 33 100 18 33 101 9 34 102 17 34 103 16 34 104 15 35 105 19 35 106 17 35 107</p>
        </triangles>
      </mesh>
    </geometry>
  </library_geometries>
  <library_visual_scenes>
    <visual_scene id="Scene" name="Scene">
      <node id="Camera" name="Camera" type="NODE">
        <matrix sid="transform">0.6859207 -0.6515582 0.3240135 -7.358891 0 0.4452714 0.8953956 4.958309 -0.7276763 -0.6141704 0.3054208 -6.925791 0 0 0 1</matrix>
        <instance_camera url="#Camera-camera"/>
      </node>
      <node id="Light" name="Light" type="NODE">
        <matrix sid="transform">-0.2908646 -0.5663932 0.7711008 -4.076245 0.05518906 0.7946723 0.6045247 5.903862 -0.9551712 0.2183912 -0.1998834 1.005454 0 0 0 1</matrix>
        <instance_light url="#Light-light"/>
      </node>
      <node id="Cube" name="Cube" type="NODE">
        <matrix sid="transform">1 0 0 0 0 1 0 0 0 0 1 0 0 0 0 1</matrix>
        <instance_geometry url="#Cube-mesh" name="Cube">
          <bind_material>
            <technique_common>
              <instance_material symbol="Material-material" target="#Material-material">
                <bind_vertex_input semantic="UVMap" input_semantic="TEXCOORD" input_set="0"/>
              </instance_material>
            </technique_common>
          </bind_material>
        </instance_geometry>
      </node>
    </visual_scene>
  </library_visual_scenes>
  <scene>
    <instance_visual_scene url="#Scene"/>
  </scene>
</COLLADA>